<svg id="Capa_1" enable-background="new 0 0 512 512" height="512" viewBox="0 0 512 512" width="512" xmlns="http://www.w3.org/2000/svg"><g><g><g><g><g><g><g><circle cx="256" cy="256" fill="#a3d4ff" r="256"/></g></g></g></g></g></g><path d="m281.406 510.755c129.458-12.754 230.594-121.943 230.594-254.755 0-9.415-.508-18.711-1.499-27.862l-155.626-155.626-149.405 125.83 70.355 70.354-67.919 168.559z" fill="#65b1fc"/><g><path d="m226.15 225.306 30.429-3.969 29.271 3.969 18.245 211.951-48.412 33.881-47.777-33.883z" fill="#606ae9"/></g><g><path d="m256.579 221.337 29.271 3.969 18.245 211.951-48.412 33.881z" fill="#4855b6"/></g><g><path d="m285.85 225.306h-59.7l-18.244-66.461 48.094-28.159 48.094 28.159z" fill="#7583f1"/></g><g><path d="m285.85 225.306h-29.285l-.565-94.62 48.094 28.159z" fill="#606ae9"/></g><g><path d="m157.125 72.512h197.75l-77.038 71.531-47.566-1.955z" fill="#7e8596"/></g><g><path d="m255.683 72.512h99.192l-77.038 71.531-21.837-1.955z" fill="#636978"/></g><g><path d="m380.982 108.495-26.107-35.983-98.875 66.742-98.875-66.742-26.107 35.983 74.452 89.847 50.53-55.547 50.53 55.547z" fill="#fff"/></g><g><path d="m380.982 108.495-26.107-35.983-98.875 66.742v3.541l50.53 55.547z" fill="#e9edf5"/></g></g></svg>